<svg xmlns="http://www.w3.org/2000/svg" width="537" height="537" viewBox="0 0 537 537">
    <defs>
        <linearGradient id="a" x1="50%" x2="50%" y1="0%" y2="100%">
            <stop offset="0%" stop-color="#B7EFDB"/>
            <stop offset="100%" stop-color="#B7EFDB" stop-opacity="0"/>
        </linearGradient>
    </defs>
    <g fill="none" fill-rule="evenodd" transform="translate(-38 -153)">
        <circle cx="139.5" cy="471.5" r="58.5" fill="#F1FAF7"/>
        <path fill="#64CDA8" stroke="#FFF" stroke-width="5" d="M231.919 207.982l13.699-5.614c91.777-37.608 197.237-1.898 247.285 83.733 39.524 67.624 61.288 122.628 65.292 165.01 5.01 53.03-13.353 97.675-55.086 133.933-90.534 78.654-221.855 88.851-323.445 25.116a397.77 397.77 0 0 0-53.582-28.203C58.497 552.731 24.539 476.628 47.929 406.81l1.22-3.646a321.192 321.192 0 0 1 182.77-195.181z" opacity=".1"/>
        <path fill="#64CDA8" stroke="#FFF" stroke-width="5" d="M222.98 307.885l218.052-144.06c21.717-14.348 50.952-8.374 65.3 13.342a47.127 47.127 0 0 1 .757 50.771c-35.945 58.106-52.33 103.947-49.157 137.523 3.743 39.604 25.641 123.504-10.15 169.372-22.652 29.028-61.424 61.069-116.318 96.123-109.846 31.655-191.535 30.697-245.067-2.872-80.299-50.353-28.74-146.269-6.665-208.442 12.727-35.847 42.704-63.628 89.93-83.342a321.192 321.192 0 0 0 53.318-28.415z" opacity=".1"/>
        <ellipse cx="468.5" cy="208" fill="#D4F1E6" rx="23.5" ry="24"/>
        <path fill="#7FE5C3" d="M468 197c6.075 0 11 4.925 11 11 0 6.076-4.925 11-11 11s-11-4.924-11-11c0-6.075 4.925-11 11-11zm4.612 7.695v-.392c0-.109-.026-.19-.08-.245-.052-.055-.132-.082-.238-.082H470.181a.398.398 0 0 1-.235-.077.74.74 0 0 1-.202-.233l-1.199-2.096-1.199-2.097a.491.491 0 0 0-.176-.205.486.486 0 0 0-.26-.068h-1.024c-.083 0-.146.023-.188.068-.042.046-.063.114-.063.205a.599.599 0 0 0 .067.273l.469.756.47.758c.31.502.633.978.968 1.431.334.453.68.88 1.038 1.285H463.706c-.106 0-.186.027-.239.082-.053.054-.08.136-.08.245v.766c0 .123.027.213.08.274.053.06.133.091.239.091h.973c.05.006.088.027.113.064a.272.272 0 0 1 .038.155v3.974c0 .424.058.805.174 1.142.116.335.29.627.522.872.232.246.502.431.812.554.309.122.656.184 1.042.184h.486c.38 0 .7-.063.956-.19.257-.129.453-.32.588-.575h.066v3.373c0 .116.027.202.08.26.052.057.132.086.239.086h.888c.107 0 .187-.029.24-.087.052-.057.08-.144.08-.26v-9.333c0-.073.015-.128.045-.165.031-.036.077-.054.138-.054h1.108c.106 0 .185-.029.238-.087.054-.058.08-.144.08-.26v-.392zm-3.32.739c.061 0 .107.017.138.054.03.037.046.092.046.165V209.426c0 .225-.029.426-.086.604a1.299 1.299 0 0 1-.259.462c-.114.13-.259.23-.433.294a1.75 1.75 0 0 1-.614.098h-.453c-.424 0-.743-.118-.956-.356-.212-.236-.319-.592-.319-1.066V205.652c0-.073.016-.127.046-.164.03-.037.077-.054.139-.054h2.751z"/>
        <ellipse cx="157.5" cy="211" fill="#F1FAF7" rx="51.5" ry="52"/>
        <ellipse cx="523.5" cy="350" fill="#F1FAF7" rx="51.5" ry="52"/>
        <path fill="#93DCC1" fill-rule="nonzero" d="M445 334.931v50.543c-.003.972-.914 1.76-2.04 1.762h-1.45v263.292C441.507 665.7 427.275 678 409.72 678H219.346c-8.43 0-16.515-2.896-22.475-8.048-5.96-5.152-9.308-12.139-9.306-19.424V396.47h-1.051c-.794.001-1.44-.553-1.443-1.239v-28.765c0-.33.152-.647.423-.881.27-.234.637-.365 1.02-.365h1.05v-10.835h-1.06c-.832-.003-1.504-.588-1.504-1.308v-28.373c0-.717.675-1.298 1.505-1.3h1.06v-14.79h-1.078c-.354 0-.694-.121-.945-.338a1.08 1.08 0 0 1-.39-.817v-15.482c-.002-.64.595-1.16 1.335-1.162h1.078v-31.35c0-15.169 14.229-27.465 31.78-27.465H409.72c17.554 0 31.786 12.295 31.79 27.464v73.705h1.452c1.125.003 2.036.79 2.039 1.762zm-151.72-91.328a2.542 2.542 0 0 0-2.542 2.542v2.168a2.542 2.542 0 0 0 2.542 2.542h29.68a2.542 2.542 0 0 0 2.541-2.542v-2.168a2.542 2.542 0 0 0-2.541-2.542h-29.68zm43.085 5.802c1.6 0 2.897-1.299 2.897-2.9 0-1.603-1.297-2.902-2.897-2.902a2.899 2.899 0 0 0-2.897 2.901c0 1.602 1.297 2.9 2.897 2.9zm94.875 8.938c0-4.68-2.218-9.167-6.169-12.476-3.951-3.308-9.31-5.165-14.898-5.165h-30.359v3.061c0 8.022-7.766 14.525-17.346 14.525h-96.805c-9.58 0-17.347-6.503-17.347-14.525v-3.06h-28.489c-5.587 0-10.946 1.858-14.896 5.166-3.951 3.308-6.17 7.795-6.17 12.474V650.94c0 5.868 3.482 11.352 9.291 14.634.657.372 1.34.71 2.046 1.012 3.005 1.31 6.343 1.99 9.73 1.986h190.345c5.008 0 9.852-1.493 13.663-4.213 4.702-3.345 7.41-8.253 7.404-13.42V258.344z"/>
        <path fill="#FFF" fill-rule="nonzero" d="M431 258.646v392.716c.006 5.168-2.708 10.077-7.42 13.423-3.82 2.721-8.675 4.215-13.694 4.215H219.114c-3.394.004-6.74-.677-9.75-1.987a20.885 20.885 0 0 1-2.051-1.012c-5.823-3.283-9.313-8.77-9.313-14.639V258.646c0-4.68 2.224-9.169 6.184-12.478 3.96-3.31 9.33-5.168 14.93-5.168h28.553v3.062c0 8.024 7.784 14.53 17.385 14.53h97.022c9.602 0 17.385-6.506 17.385-14.53V241h30.427c5.6 0 10.972 1.857 14.932 5.167 3.96 3.31 6.182 7.798 6.182 12.479z"/>
        <path fill="#72BFA2" fill-rule="nonzero" d="M93 679h440v-1H93z"/>
        <g transform="translate(240 307)">
            <g fill="#00CC87" fill-rule="nonzero">
                <path d="M54.322 106.057H22.448v31.974h31.874v-31.974zm-6.374 25.58H28.823V112.45h19.125v19.185z"/>
                <path d="M34.191 117.837h6.71v6.73h-6.71zM91.23 106.057v31.974h31.873v-31.974H91.23zm25.499 25.58H97.604V112.45h19.125v19.185z"/>
                <path d="M104.65 117.837h6.71v6.73h-6.71zM22.448 207.028h31.874v-31.974H22.448v31.974zm6.375-25.58h19.125v19.185H28.823V181.45z"/>
                <path d="M34.191 188.517h6.71v6.73h-6.71zM72.776 106.057h12.582v6.73H72.776zM72.776 131.3h6.29v-6.171h6.292v-6.17H66.485v-6.17h-6.291v12.34h12.582zM59.355 131.3h6.71v6.73h-6.71zM85.358 137.19h-6.291v6.31H60.194v6.311h25.164zM28.74 162.853h6.29v-6.31h-6.29V143.92h-6.292v25.243h6.291zM34.191 143.08h6.71v6.73h-6.71zM60.026 169.164h12.75v-6.31H66.4v-6.312h-12.75v-12.621h-6.374v12.621h-6.375v12.622h6.375v-6.31H60.026zM79.486 156.543h6.71v12.62h-6.71zM78.48 175.054H59.355v6.395h12.75v19.184h-12.75v6.395H78.48v-6.395h12.75v-6.394H78.48z"/>
                <path d="M59.355 188.517h6.71v6.73h-6.71zM84.52 175.054h6.71v12.62h-6.71zM116.393 188.517H97.94v18.511h6.15v-12.34h12.303z"/>
                <path d="M110.521 200.297h12.582v6.73h-12.582zM116.393 175.054h6.71v6.73h-6.71zM98.36 181.785h6.29v-18.511H92.068v6.17h6.291zM110.354 150.232h-6.375v-6.311h-6.375v6.31H91.23v6.311h25.5v-6.31h6.374v-6.311h-12.75zM110.521 163.274h12.582v6.73h-12.582z"/>
            </g>
            <path fill="url(#a)" d="M2.897 66.83h142.655v75.547H2.897z" opacity=".357" transform="translate(0 81.358)"/>
            <path stroke="#B7EFDB" stroke-linecap="round" stroke-width="5" d="M127.448 81.358h3.828c8.284 0 15 6.716 15 15v3.887M127.448 228.094h3.828c8.284 0 15-6.715 15-15v-3.886M18.828 81.358H15c-8.284 0-15 6.716-15 15v3.887M18.828 228.094H15c-8.284 0-15-6.715-15-15v-3.886"/>
            <path stroke="#5BDEB2" stroke-linecap="square" stroke-width="4" d="M2.368 150.005h143.325"/>
            <g transform="translate(28.241 271.68)">
                <rect width="89.793" height="36.321" fill="#00CC87" rx="18.16"/>
                <text fill="#FFF" font-family="Avenir-Black, Avenir" font-size="18" font-weight="700" letter-spacing=".18">
                    <tspan x="32.586" y="24.024">PA</tspan> <tspan x="32.586" y="49.024">Y</tspan>
                </text>
            </g>
            <rect width="60.103" height="14.528" x="43.448" fill="#B7EFDB" opacity=".5" rx="7.264"/>
            <rect width="91.966" height="24.698" x="27.517" y="27.604" fill="#93DCC1" opacity=".5" rx="12.349"/>
        </g>
        <g fill-rule="nonzero" transform="translate(406 375)">
            <path fill="#2F2E41" d="M37.854 293.14l-2.795-2.092s-1.85 10.412.214 11.972c2.065 1.56 9.808 4.16 9.808 7.28 0 3.119 17.552 7.279 18.069 2.6.516-4.68-1.55-7.28-1.55-7.28s-8.259-8.32-9.291-9.88c-1.033-1.56-3.614-4.68-3.614-4.68l-10.84 2.08z"/>
            <path fill="#006334" d="M79.87 161.857s-.077.465-.212 1.315c-.125.755-.296 1.822-.503 3.136-2.18 13.534-8.538 53.376-8.107 54.69.52 1.585 4.152 7.394 0 8.978a3.255 3.255 0 0 0-1.292 1.43 30.984 30.984 0 0 0-2.195 5.27c-2.476 7.309-5.123 19.005-6.654 27.106-.67 3.559-1.126 6.42-1.26 7.92a4.381 4.381 0 0 0-.016 1.046c.519 2.112-3.114 9.505-4.671 11.617-1.557 2.112-4.152 4.225-3.633 6.337.52 2.112-12.974 7.92-14.531 4.224-1.557-3.696-1.557-5.808-2.076-6.864-.519-1.056-1.038-8.45 1.557-9.505 2.595-1.056 1.038-19.538 3.633-23.235.866-1.23 2.19-5.396 3.576-10.408a347.408 347.408 0 0 0 1.634-6.151 706.985 706.985 0 0 0 4.131-17.236l-.519-61.782 28.544-3.697.732 1.643 1.458 3.258.405.908z"/>
            <path fill="#2F2E41" d="M82.002 262.431s4.18-4.2 6.27 0c2.091 4.2 4.181 20.477 7.84 24.152 3.657 3.675 8.36 22.051 3.135 23.101-5.226 1.05-10.974-1.575-11.497-4.725-.522-3.15-11.496-19.426-11.496-21.001 0-1.575 7.316-7.35 7.316-7.35l-1.568-14.177z"/>
            <path fill="#006334" d="M16.935 132.095s6.858 61.767 8.44 67.574c1.583 5.807 10.023 27.98 12.661 31.675 2.638 3.695 19.519 33.787 21.629 35.37 2.11 1.584 6.33 5.808 6.33 5.808s7.913 7.918 8.968 9.502c1.056 1.584 10.024-3.167 10.551-6.335.528-3.167-.527-8.447-1.055-10.558-.527-2.112 1.055-5.28-.527-6.863-1.583-1.584-9.496-9.503-9.496-13.198 0-3.696-13.716-25.34-18.991-30.092-5.276-4.75-4.22-12.67-4.22-12.67v-32.203l29.014-8.974s-1.583-25.34-5.276-25.34c-3.692 0-52.226-8.447-58.028-3.696z"/>
            <ellipse cx="59.977" cy="27.218" fill="#D68676" rx="17" ry="17.056"/>
            <path fill="#D68676" d="M53.937 40.938s-2.095 7.931-4.713 10.046C46.606 53.1 56.03 62.088 56.03 62.088l17.804 1.057L76.977 53.1s-5.76-11.632-4.189-19.034c1.57-7.403-18.851 6.873-18.851 6.873z"/>
            <path fill="#FFF" d="M46.282 49.355s4.723.528 5.773 2.111c1.05 1.584 8.397 6.335 14.17 5.279s9.447-2.64 10.497-2.112c1.05.528 3.149 11.613 3.149 11.613l-5.773 16.892 1.05 46.451 1.574 12.67s3.149-4.224-9.447-1.585c-12.596 2.64-28.866-2.11-34.114-2.639-5.248-.528-14.17-2.111-14.695-5.278-.525-3.168 1.574-14.78 1.574-14.78l8.397-35.367 5.249-19.003 12.596-14.252z"/>
            <path fill="#B7EFDB" d="M51.658 47.576s-4.454-2.35-6.034-.255c-1.58 2.096-21.59 5.24-21.59 6.812s-4.213 44.014-3.16 47.682c1.053 3.668-2.106 7.86-2.106 7.86l-3.687 15.719S5.076 155.26 9.29 156.308c4.213 1.048 7.899 0 9.479 0 1.58 0 1.053-19.91 5.266-25.15 4.212-5.24 10.005-18.34 11.058-20.96 1.053-2.62 14.218-38.774 13.691-42.966-.526-4.191 2.875-19.656 2.875-19.656zM73.016 49.355s4.2 0 4.724 1.052c.525 1.052 5.774 7.89 7.874 9.468 2.1 1.578 9.448 8.416 9.448 9.994 0 1.578-15.222 13.15-15.222 13.15s-6.3 31.034-3.15 41.554c3.15 10.52 7.874 35.768 5.774 37.346-2.1 1.578-6.824 2.104-6.824 0s-3.15-24.722-5.774-29.456c-2.624-4.734-10.498-34.716-7.348-43.132 3.15-8.416 10.498-39.976 10.498-39.976z"/>
            <path fill="#D68676" d="M3.926 101.613s-.53 16.389 5.296 24.848a100.407 100.407 0 0 1 9.534 17.974s9.533-2.643 11.122-5.815c1.59-3.172 11.652-.529 11.652-1.586s-12.181-6.344-13.24-7.401c-1.06-1.058-4.767-1.058-6.886-3.172-2.119-2.115-2.648-6.873-2.648-6.873l-2.119-13.746-12.711-4.23z"/>
            <path fill="#2F2E41" d="M47.921 16.31a9.981 9.981 0 0 1-3.894-.894c-2.646-1.431-3.348-5.508-1.334-7.746a9.984 9.984 0 0 1 1.85-1.493l4-2.731c1.77-1.208 3.581-2.436 5.645-3.005a17.563 17.563 0 0 1 5.77-.342c3.76.133 7.483.812 11.05 2.016 3.528 1.299 6.819 3.472 8.955 6.573 3.387 4.917 3.434 11.547 1.569 17.223-1.866 5.676-5.41 10.618-8.9 15.46l-1.813-8.868c-.16-.79-.37-1.655-1.024-2.123-1.628-1.162-3.619 1.224-5.616 1.208-1.284-.01-2.361-1.069-2.848-2.26a12.92 12.92 0 0 1-.63-3.794c-.239-2.717-1.185-6.497-3.75-7.995-2.39-1.396-6.344-.984-9.03-1.229z"/>
            <path fill="#000" d="M48.041 162.018s1.95 51.918 3.104 53.513c1.154 1.594 0-53.676 0-53.676l-3.104.163z" opacity=".1"/>
            <path fill="#B7EFDB" d="M28.51 53.71h-4.215S6.386 77.876 8.493 79.452c2.107 1.576 0 5.778 0 5.778L4.28 93.11S-.988 97.84.592 98.89c1.58 1.05 3.687 5.253 3.687 5.253s10.535-1.576 13.695 4.728l6.832-8.602 3.703-46.56z"/>
            <path fill="#D68676" d="M76.383 99.305s-11.572.528-24.721-7.924l-13.15-5.811S26.941 67.609 25.89 70.778c-1.052 3.17 1.578 9.51 1.578 9.51s-17.232 3.297-16.282 8.35c.196 1.041 8.918-1.483 8.918-1.483s-1.578 10.037 7.364 10.565c8.941.528 11.571-1.585 11.571-1.585s37.87 31.696 44.182 21.659c6.312-10.037-6.837-18.49-6.837-18.49z"/>
            <path fill="#B7EFDB" d="M90.193 67.5l5.693 2.127v15.954l2.07 3.19s-.518 6.382-2.07 7.977c-1.553 1.595-4.658 1.064-3.623 4.786.622 2.427.798 4.952.518 7.445 0 0-9.316 12.23-9.833 10.636-.518-1.596-7.763-21.272-8.798-21.272-1.035 0 10.35-30.843 10.35-30.843h5.693z"/>
            <path fill="#006334" d="M20.54 148.065s-5.634-5.424-2.817-5.696c2.818-.27 12.627-5.695 14.262-2.983 1.634 2.712-11.444 8.679-11.444 8.679z"/>
        </g>
        <g fill="#7FE5C3">
            <path fill-rule="nonzero" d="M156.687 210.196v7.771h-2.474v-19.193h6.561a5.944 5.944 0 0 1 4.25 1.662 5.333 5.333 0 0 1 1.774 4.05 5.309 5.309 0 0 1-1.775 4.074c-1.147 1.09-2.563 1.635-4.249 1.634h-4.087v.002zm0-9.059v6.7h4.149a3.276 3.276 0 0 0 2.448-.992 3.266 3.266 0 0 0 0-4.69 3.233 3.233 0 0 0-2.448-1.02h-4.15v.002zM172.5 204.407c1.828 0 3.271.487 4.33 1.46 1.058.975 1.587 2.31 1.586 4.007v8.093h-2.367v-1.822h-.107c-1.025 1.5-2.387 2.251-4.088 2.251-1.452 0-2.666-.429-3.644-1.286a4.101 4.101 0 0 1-1.466-3.216c0-1.359.516-2.44 1.546-3.242 1.03-.803 2.407-1.205 4.128-1.207 1.469 0 2.679.268 3.63.804v-.563a2.803 2.803 0 0 0-1.022-2.183 3.51 3.51 0 0 0-2.388-.899c-1.382 0-2.476.581-3.281 1.743l-2.18-1.367c1.2-1.716 2.973-2.573 5.322-2.573zm-3.202 9.54a1.967 1.967 0 0 0 .821 1.608 3.025 3.025 0 0 0 1.922.644 3.952 3.952 0 0 0 2.783-1.152c.82-.769 1.23-1.67 1.23-2.706-.772-.613-1.847-.919-3.227-.919-1.005 0-1.843.242-2.514.725-.678.49-1.015 1.085-1.015 1.8z"/>
            <path d="M192 204.836l-8.261 18.92h-2.554l3.065-6.62-5.432-12.3h2.69l3.926 9.433h.053l3.82-9.433zM146.689 208.52c0-.751-.063-1.501-.19-2.242h-10.435v4.247h5.976a5.103 5.103 0 0 1-2.21 3.35v2.757h3.567c2.089-1.919 3.292-4.757 3.292-8.112z"/>
            <path d="M136.064 219.295c2.986 0 5.5-.977 7.333-2.661l-3.566-2.757c-.993.67-2.272 1.054-3.767 1.054-2.886 0-5.335-1.94-6.211-4.552h-3.674v2.841a11.068 11.068 0 0 0 9.885 6.075z"/>
            <path d="M129.853 210.38a6.585 6.585 0 0 1 0-4.221v-2.841h-3.674a10.992 10.992 0 0 0 0 9.902l3.674-2.84z"/>
            <path d="M136.064 201.607a6.018 6.018 0 0 1 4.245 1.654l3.157-3.147a10.651 10.651 0 0 0-7.402-2.871c-4.182 0-8.007 2.35-9.885 6.075l3.674 2.84c.876-2.612 3.325-4.55 6.211-4.55z"/>
        </g>
        <path fill="#7FE5C3" d="M135 295.439a14.046 14.046 0 0 1 7.934-2.439c7.769 0 14.066 6.268 14.066 14s-6.297 14-14.066 14c-2.943 0-5.675-.9-7.934-2.439a14.046 14.046 0 0 1-7.934 2.439c-7.769 0-14.066-6.268-14.066-14s6.297-14 14.066-14c2.943 0 5.675.9 7.934 2.439zm0 0c-3.702 2.521-6.131 6.759-6.131 11.561s2.429 9.04 6.131 11.561c3.702-2.521 6.131-6.759 6.131-11.561s-2.429-9.04-6.131-11.561z"/>
        <g fill="#7FE5C3">
            <path d="M547.078 350.5l-7.714 7.84v-15.68z"/>
            <path d="M542.714 350.5L535 358.34v-15.68z"/>
            <path fill-rule="nonzero" d="M511.764 351.966a7.94 7.94 0 0 1-.69 2.362 6.3 6.3 0 0 1-1.35 1.873 6.02 6.02 0 0 1-1.98 1.242c-.765.299-1.62.448-2.565.448-.958 0-1.78-.149-2.467-.448-.686-.298-1.236-.712-1.65-1.242a4.455 4.455 0 0 1-.846-1.873c-.149-.72-.165-1.507-.048-2.362l1.185-8.857h3.03l-1.166 8.735c-.064.448-.055.862.03 1.242.084.38.233.71.446.987.214.279.48.496.797.652a2.41 2.41 0 0 0 1.078.234 2.8 2.8 0 0 0 1.136-.234c.356-.156.677-.373.962-.652.284-.278.52-.607.709-.987.187-.38.314-.794.378-1.242l1.166-8.735h3.03l-1.185 8.857zm4.176-8.857h5.11c.711 0 1.375.068 1.99.203.615.136 1.137.37 1.564.703.427.332.744.78.952 1.344.207.563.252 1.272.136 2.127-.117.842-.344 1.548-.68 2.118a4.203 4.203 0 0 1-1.253 1.364c-.499.34-1.068.58-1.71.723a9.425 9.425 0 0 1-2.049.214h-2.214l-.738 5.62h-3.03l1.922-14.416zm2.215 6.108h2.02c.272 0 .537-.027.796-.081.26-.055.499-.146.72-.275.22-.13.407-.306.562-.53.156-.224.253-.505.292-.845.052-.366.01-.661-.126-.885a1.376 1.376 0 0 0-.564-.52c-.24-.122-.511-.2-.816-.234a7.977 7.977 0 0 0-.883-.05h-1.554l-.447 3.42zm10.178-6.108h3.03l-1.922 14.416h-3.03l1.922-14.416z"/>
        </g>
        <g fill="#7FE5C3">
            <path d="M133.827 460h4.907l-3.774 21h-4.907zM160.425 478.398L159.362 481h-4.713l8.579-21h5.517l4.712 21h-4.712l-.584-2.602h-7.736zm1.917-4.693h4.765l-1.69-7.529-3.075 7.53zM106.216 460.373c3.45.917 5.336 1.78 5.66 2.591.323.81 1.856 6.823 4.598 18.036h6.364l8.662-21h-6.053l-5.303 14.273c-1.17-5.616-1.902-8.947-2.192-9.994-.437-1.571.068-3.906-6.077-3.906h-5.659zM154.649 465.253v-4.87c-8.526-1.27-13.143.617-13.852 5.66-1.063 7.564 8.117 5.759 7.484 9.004-.422 2.164-3.437 2.465-9.045.903l-.502 4.568c10.61 1.45 15.915-.373 15.915-5.47 0-7.648-7.958-4.642-7.958-9.005 0-2.184 2.653-2.447 7.958-.79z"/>
        </g>
    </g>
</svg>
