<svg width="504" height="487" viewBox="0 0 504 487" xmlns="http://www.w3.org/2000/svg" xmlns:xlink="http://www.w3.org/1999/xlink"><title>01</title><desc>Created with Sketch.</desc><defs><path id="path-1" d="M394733014e-25-156458424e-24 270.933333 494408619e-23V354.133333H0z"/><filter x="-15.5%" y="-5.9%" width="131%" height="123.7%" filterUnits="objectBoundingBox" id="filter-2"><feOffset dx="0" dy="21" in="SourceAlpha" result="shadowOffsetOuter1"/><feGaussianBlur stdDeviation="10.5" in="shadowOffsetOuter1" result="shadowBlurOuter1"/><feComposite in="shadowBlurOuter1" in2="SourceAlpha" operator="out" result="shadowBlurOuter1"/><feColorMatrix values="0 0 0 0 0 0 0 0 0 0 0 0 0 0 0 0 0 0 0.0850360577 0" type="matrix" in="shadowBlurOuter1"/></filter><rect id="path-3" x="33.0666667" y="275.2" width="204.8" height="50.1333333" rx="25.0666667"/><filter x="-9.3%" y="-33.9%" width="118.6%" height="175.8%" filterUnits="objectBoundingBox" id="filter-4"><feOffset dx="0" dy="2" in="SourceAlpha" result="shadowOffsetOuter1"/><feGaussianBlur stdDeviation="6" in="shadowOffsetOuter1" result="shadowBlurOuter1"/><feColorMatrix values="0 0 0 0 0.742057666 0 0 0 0 0.778957201 0 0 0 0 0.750257563 0 0 0 0.229539991 0" type="matrix" in="shadowBlurOuter1"/></filter></defs><g id="1280-Pages" stroke="none" stroke-width="1" fill="none" fill-rule="evenodd"><g id="BQR_Web_Pready_1280" transform="translate(-146.000000, -1638.000000)"><g id="Group-57" transform="translate(0.000000, 1400.666667)"><g id="Group-56" transform="translate(0.000000, 168.000000)"><g id="Group-55"><g id="1" transform="translate(146.666667, 70.222222)"><g id="Group-44-Copy-2" transform="translate(0.000000, 192.711111)"><path d="M37.6961446 32H263.814859C272.485912 32 279.466667 39.0575644 279.466667 47.8252978V276.442453C279.466667 285.209102 272.485912 292.266667 263.814859 292.266667H37.6961446C29.0250916 292.266667 22.0444444 285.209102 22.0444444 276.442453V47.8252978C22.0444444 39.0575644 29.0250916 32 37.6961446 32z" id="rect4968" stroke-opacity=".15" stroke="#000" stroke-width=".533333333" fill="#fff" fill-rule="nonzero"/><path d="M172.8 167.111111H238.222222C240.578637 167.111111 242.488889 169.021363 242.488889 171.377778V292.266667v0H168.533333V171.377778C168.533333 169.021363 170.443585 167.111111 172.8 167.111111z" id="Rectangle" fill="#eee"/><rect id="Rectangle-Copy-4" fill="#eee" x="58.3111111" y="167.111111" width="73.9555556" height="55.4666667" rx="4.26666667"/><path d="M73.9555556 108.8C73.9555556 122.264943 66.9076076 134.70705 55.4666931 141.439528 44.0257432 148.172009 29.929918 148.172009 18.4889681 141.439528 7.04801295 134.707077.0 122.264965.0 108.8H36.9778306h36.977725z" id="path4972" fill="#cef0fc" fill-rule="nonzero"/><path d="M0 107.377778 21.4857066 16.2690316C23.5533836 7.50110817 28.6727829.0 37.6002014.0H263.199799C272.127217.0 277.246616 7.50110817 279.314293 16.2690316L300.8 107.377778" id="path4974" fill="#cef0fc" fill-rule="nonzero"/><path d="M150.755556 108.8C150.755556 122.264943 143.707608 134.70705 132.266693 141.439528 120.825743 148.172009 106.729918 148.172009 95.2889681 141.439528 83.8480129 134.707077 76.8 122.264965 76.8 108.8H113.777831 150.755556z" id="path5264" fill="#b9e1d9" fill-rule="nonzero"/><path id="path5266" fill="#b9e1d9" fill-rule="nonzero" d="M73.9555556 107.377778 84.8492661.0H150.755556L150.329616 107.375609"/><path d="M224 108.8C224 122.264943 216.952042 134.70705 205.511111 141.439528 194.070145 148.172009 179.9743 148.172009 168.533333 141.439528 157.092402 134.70705 150.044444 122.264943 150.044444 108.8h36.977778H224z" id="path5272" fill="#cef0fc" fill-rule="nonzero"/><path d="M300.8 108.8C300.8 122.264943 293.752042 134.70705 282.311111 141.439528 270.870145 148.172009 256.7743 148.172009 245.333333 141.439528 233.892402 134.70705 226.844444 122.264943 226.844444 108.8h36.977778H300.8z" id="path5274" fill="#b9e1d9" fill-rule="nonzero"/><path d="M226.406805 107.377778 216.177778.0H263.54294C272.388886.0 277.461459 7.50125971 279.510373 16.2693603L300.8 107.377778" id="path5278" fill="#b9e1d9" fill-rule="nonzero"/></g><g id="maximized_widget-copy-4" transform="translate(211.911111, 0.000000)"><g id="Group-13"><g id="base"><use fill="#000" fill-opacity="1" filter="url(#filter-2)" xlink:href="#path-1"/><path stroke-opacity=".15" stroke="#000" stroke-width=".533333333" d="M.266666667.266666667V353.866667H270.666667V.266666667H.266666667z" stroke-linejoin="square" fill="#fff" fill-rule="evenodd"/></g><g id="Rectangle"><use fill="#000" fill-opacity="1" filter="url(#filter-4)" xlink:href="#path-3"/><use fill="#b9e1d9" fill-rule="evenodd" xlink:href="#path-3"/></g><path d="M82.962 298.168667C82.9179998 298.256667 82.8670003 298.318666 82.809 298.354667 82.7509997 298.390667 82.6820004 298.408667 82.602 298.408667 82.5419997 298.408667 82.4763751 298.391229 82.4051252 298.356354L81.978 298.108667v0C81.8419993 298.032666 81.6830009 297.963667 81.501 297.901667 81.3189991 297.839666 81.1040012 297.808667 80.856 297.808667 80.6319989 297.808667 80.4370008 297.835666 80.271 297.889667 80.1049992 297.943667 79.9650006 298.018666 79.851 298.114667 79.7369994 298.210667 79.652 298.325666 79.596 298.459667 79.5399997 298.593667 79.512 298.740666 79.512 298.900667 79.512 299.104668 79.5689994 299.274666 79.683 299.410667 79.7970006 299.546667 79.9479991 299.662666 80.136 299.758667 80.3240009 299.854667 80.5379988 299.940666 80.778 300.016667 81.0180012 300.092667 81.2629987 300.173666 81.513 300.259667 81.7630013 300.345667 82.0079988 300.445666 82.248 300.559667 82.4880012 300.673667 82.7019991 300.817666 82.89 300.991667 83.0780009 301.165668 83.2289994 301.378665 83.343 301.630667 83.4570006 301.882668 83.514 302.188665 83.514 302.548667 83.514 302.940669 83.4470007 303.307665 83.313 303.649667 83.1789993 303.991668 82.9830013 304.289665 82.725 304.543667 82.4669987 304.797668 82.152 304.997666 81.78 305.143667 81.4079981 305.289667 80.9820024 305.362667 80.502 305.362667 80.2259986 305.362667 79.9540013 305.335667 79.686 305.281667 79.4179987 305.227666 79.1610012 305.150667 78.915 305.050667 78.6689988 304.950666 78.4390011 304.830667 78.225 304.690667 78.0109989 304.550666 77.8200008 304.394668 77.652 304.222667L78.12 303.448667C78.1640002 303.392666 78.2169997 303.345667 78.279 303.307667 78.3410003 303.269666 78.4099996 303.250667 78.486 303.250667 78.5860005 303.250667 78.6939994 303.291666 78.81 303.373667L79.0699998 303.549667C79.1179997 303.581 79.1683331 303.613333 79.221 303.646667 79.3790008 303.746667 79.5649989 303.837666 79.779 303.919667 79.9930011 304.001667 80.2499985 304.042667 80.55 304.042667 81.0100023 304.042667 81.3659987 303.933668 81.618 303.715667 81.8700013 303.497666 81.996 303.184669 81.996 302.776667 81.996 302.548666 81.9390006 302.362667 81.825 302.218667 81.7109994 302.074666 81.5600009 301.953667 81.372 301.855667 81.1839991 301.757666 80.9700012 301.674667 80.73 301.606667 80.4899988 301.538666 80.2460012 301.464667 79.998 301.384667 79.7499988 301.304666 79.5060012 301.208667 79.266 301.096667 79.0259988 300.984666 78.8120009 300.838668 78.624 300.658667 78.4359991 300.478666 78.2850006 300.253668 78.171 299.983667 78.0569994 299.713665 78 299.380669 78 298.984667 78 298.668665 78.0629994 298.360668 78.189 298.060667 78.3150006 297.760665 78.4989988 297.494667 78.741 297.262667 78.9830012 297.030666 79.2799982 296.844667 79.632 296.704667 79.9840018 296.564666 80.3859977 296.494667 80.838 296.494667 81.3500026 296.494667 81.8219978 296.574666 82.254 296.734667 82.6860022 296.894667 83.0539985 297.118665 83.358 297.406667L82.962 298.168667zM95.714 303.220667C95.8020004 303.220667 95.8779997 303.254666 95.942 303.322667L96.578 304.012667C96.2259982 304.448669 95.7930026 304.782666 95.279 305.014667 94.7649974 305.246668 94.1480036 305.362667 93.428 305.362667 92.7839968 305.362667 92.2050026 305.252668 91.691 305.032667 91.1769974 304.812666 90.7380018 304.506669 90.374 304.114667 90.0099982 303.722665 89.731001 303.254669 89.537 302.710667 89.342999 302.166664 89.246 301.57267 89.246 300.928667 89.246 300.276663 89.3539989 299.679669 89.57 299.137667 89.7860011 298.595664 90.089998 298.128669 90.482 297.736667 90.874002 297.344665 91.3429973 297.039668 91.889 296.821667 92.4350027 296.603666 93.0379967 296.494667 93.698 296.494667 94.3420032 296.494667 94.9049976 296.597666 95.387 296.803667 95.8690024 297.009668 96.2819983 297.282665 96.626 297.622667L96.086 298.372667C96.0539998 298.420667 96.0130003 298.462666 95.963 298.498667 95.9129997 298.534667 95.8440004 298.552667 95.756 298.552667 95.6639995 298.552667 95.5700005 298.516667 95.474 298.444667 95.3779995 298.372666 95.2560007 298.294667 95.108 298.210667 94.9599993 298.126666 94.7730011 298.048667 94.547 297.976667 94.3209989 297.904666 94.0340017 297.868667 93.686 297.868667 93.277998 297.868667 92.9030017 297.939666 92.561 298.081667 92.2189983 298.223667 91.9250012 298.426665 91.679 298.690667 91.4329988 298.954668 91.2410007 299.275665 91.103 299.653667 90.9649993 300.031669 90.896 300.456664 90.896 300.928667 90.896 301.416669 90.9649993 301.850665 91.103 302.230667 91.2410007 302.610669 91.4279988 302.930665 91.664 303.190667 91.9000012 303.450668 92.1779984 303.649666 92.498 303.787667 92.8180016 303.925667 93.1619982 303.994667 93.53 303.994667 93.7500011 303.994667 93.9489991 303.982667 94.127 303.958667 94.3050009 303.934667 94.4689992 303.896667 94.619 303.844667 94.7690008 303.792666 94.9109993 303.725667 95.045 303.643667 95.1790007 303.561666 95.3119993 303.460667 95.444 303.340667 95.4840002 303.304666 95.5259998 303.275667 95.57 303.253667 95.6140002 303.231667 95.6619997 303.220667 95.714 303.220667zM110.422 305.266667H109.174C109.033999 305.266667 108.919 305.231667 108.829 305.161667 108.739 305.091666 108.674 305.004667 108.634 304.900667L107.986 303.130667H104.392L103.744 304.900667C103.712 304.992667 103.649 305.076666 103.555 305.152667 103.461 305.228667 103.346001 305.266667 103.21 305.266667H101.956L105.364 296.590667H107.014L110.422 305.266667zM104.806 301.990667H107.572L106.516 299.104667C106.468 298.976666 106.415 298.825668 106.357 298.651667 106.299 298.477666 106.242 298.288668 106.186 298.084667L106.075333 298.474C106.057111 298.535777 106.039 298.596 106.021 298.654667 105.985 298.772001 105.949444 298.879556 105.914333 298.977333L104.806 301.990667zM116.316 296.590667H117.162L117.29 296.594667C117.308667 296.596 117.326 296.597667 117.342 296.599667 117.39 296.605667 117.433 296.617667 117.471 296.635667 117.509 296.653667 117.546 296.679666 117.582 296.713667L117.659333 296.796333C117.673111 296.812555 117.687333 296.83 117.702 296.848667L122.256 302.650667C122.24 302.510666 122.229 302.373667 122.223 302.239667 122.217 302.105666 122.214 301.980667 122.214 301.864667V296.590667H123.636V305.266667H122.802C122.673999 305.266667 122.568 305.246667 122.484 305.206667 122.4 305.166666 122.318 305.094667 122.238 304.990667L117.702 299.212667C117.714 299.340667 117.723 299.467666 117.729 299.593667L117.737 299.831v0L117.738 305.266667H116.316V296.590667zM140.806 296.494667C141.158002 296.494667 141.472999 296.548666 141.751 296.656667 142.029001 296.764667 142.266999 296.908666 142.465 297.088667 142.663001 297.268668 142.818999 297.474666 142.933 297.706667 143.047001 297.938668 143.114 298.178665 143.134 298.426667L142.17325 298.629167v0L142.114 298.630667C142.046 298.630667 141.985 298.611667 141.931 298.573667 141.877 298.535666 141.834 298.476667 141.802 298.396667 141.766 298.292666 141.72 298.193667 141.664 298.099667 141.608 298.005666 141.54 297.923667 141.46 297.853667 141.38 297.783666 141.286001 297.727667 141.178 297.685667 141.069999 297.643666 140.946001 297.622667 140.806 297.622667 140.637999 297.622667 140.488001 297.651666 140.356 297.709667 140.223999 297.767667 140.112 297.845666 140.02 297.943667 139.928 298.041667 139.858 298.155666 139.81 298.285667 139.762 298.415667 139.738 298.552666 139.738 298.696667 139.738 298.816667 139.751 298.932666 139.777 299.044667 139.803 299.156667 139.844 299.268666 139.9 299.380667 139.956 299.492667 140.029 299.607666 140.119 299.725667 140.179 299.804334 140.248333 299.887 140.327 299.973666L142.756 302.500667C142.888001 302.248665 142.994 301.982668 143.074 301.702667 143.154 301.422665 143.206 301.138668 143.23 300.850667 143.238 300.758666 143.268 300.684667 143.32 300.628667 143.372 300.572666 143.444 300.544667 143.536 300.544667H144.466C144.462 301.072669 144.386001 301.576664 144.238 302.056667 144.089999 302.536669 143.878001 302.978665 143.602 303.382667L145.42 305.266667H143.968C143.892 305.266667 143.825 305.262667 143.767 305.254667 143.709 305.246667 143.654 305.231667 143.602 305.209667 143.55 305.187667 143.5 305.158667 143.452 305.122667L143.3785 305.061167v0L142.702 304.366667C142.317998 304.678668 141.891002 304.922666 141.421 305.098667 140.950998 305.274668 140.442003 305.362667 139.894 305.362667 139.557998 305.362667 139.230002 305.305667 138.91 305.191667 138.589998 305.077666 138.304001 304.912668 138.052 304.696667 137.799999 304.480666 137.597001 304.219668 137.443 303.913667 137.288999 303.607665 137.212 303.262669 137.212 302.878667 137.212 302.610665 137.256 302.355668 137.344 302.113667 137.432 301.871665 137.553999 301.646668 137.71 301.438667 137.866001 301.230666 138.050999 301.042668 138.265 300.874667 138.479001 300.706666 138.713999 300.562667 138.97 300.442667 138.757999 300.142665 138.603 299.849668 138.505 299.563667 138.407 299.277665 138.358 298.992668 138.358 298.708667 138.358 298.408665 138.412999 298.123668 138.523 297.853667 138.633001 297.583665 138.792999 297.348668 139.003 297.148667 139.213001 296.948666 139.469998 296.789667 139.774 296.671667 140.078002 296.553666 140.421998 296.494667 140.806 296.494667zM138.718 302.758667C138.718 302.978668 138.756 303.176666 138.832 303.352667 138.908 303.528668 139.011999 303.677666 139.144 303.799667 139.276001 303.921667 139.428999 304.015666 139.603 304.081667 139.777001 304.147667 139.961999 304.180667 140.158 304.180667 140.510002 304.180667 140.830999 304.125667 141.121 304.015667 141.411001 303.905666 141.675999 303.752668 141.916 303.556667L139.636 301.216667C139.315998 301.424668 139.083001 301.658665 138.937 301.918667 138.790999 302.178668 138.718 302.458665 138.718 302.758667zM160.256 302.212667V305.266667H158.642V296.590667H161.468C162.048003 296.590667 162.549998 296.658666 162.974 296.794667 163.398002 296.930667 163.747999 297.120665 164.024 297.364667 164.300001 297.608668 164.503999 297.900665 164.636 298.240667 164.768001 298.580668 164.834 298.952665 164.834 299.356667 164.834 299.776669 164.764001 300.161665 164.624 300.511667 164.483999 300.861668 164.274001 301.162665 163.994 301.414667 163.713999 301.666668 163.364002 301.862666 162.944 302.002667 162.523998 302.142667 162.032003 302.212667 161.468 302.212667H160.256zM160.256 300.952667H161.468C161.764001 300.952667 162.021999 300.915667 162.242 300.841667 162.462001 300.767666 162.643999 300.661667 162.788 300.523667 162.932001 300.385666 163.04 300.217668 163.112 300.019667 163.184 299.821666 163.22 299.600668 163.22 299.356667 163.22 299.124666 163.184 298.914668 163.112 298.726667 163.04 298.538666 162.932001 298.378667 162.788 298.246667 162.643999 298.114666 162.462001 298.013667 162.242 297.943667 162.021999 297.873666 161.764001 297.838667 161.468 297.838667H160.256V300.952667zM177.784 305.266667H176.536C176.395999 305.266667 176.281 305.231667 176.191 305.161667 176.101 305.091666 176.036 305.004667 175.996 304.900667L175.348 303.130667H171.754L171.106 304.900667C171.074 304.992667 171.011 305.076666 170.917 305.152667 170.823 305.228667 170.708001 305.266667 170.572 305.266667H169.318L172.726 296.590667H174.376L177.784 305.266667zM172.168 301.990667H174.934L173.878 299.104667C173.83 298.976666 173.777 298.825668 173.719 298.651667 173.661 298.477666 173.604 298.288668 173.548 298.084667L173.437333 298.474C173.419111 298.535777 173.401 298.596 173.383 298.654667 173.347 298.772001 173.311444 298.879556 173.276333 298.977333L172.168 301.990667zM186.444 301.894667V305.266667H184.83V301.894667L181.668 296.590667H183.09C183.230001 296.590667 183.341 296.624666 183.423 296.692667 183.505 296.760667 183.574 296.846666 183.63 296.950667L185.22 299.848667C185.312 300.020668 185.392 300.183666 185.46 300.337667 185.528 300.491667 185.59 300.642666 185.646 300.790667 185.698 300.638666 185.757 300.485667 185.823 300.331667 185.889 300.177666 185.968 300.016668 186.06 299.848667L187.638 296.950667C187.682 296.862666 187.748 296.780667 187.836 296.704667 187.924 296.628666 188.035999 296.590667 188.172 296.590667H189.6L186.444 301.894667z" id="SCAN&amp;PAY" fill="#fff" fill-rule="nonzero" opacity=".965401786"/><rect id="Rectangle" fill="#efefef" x="33.0666667" y="202.666667" width="201.6" height="8.53333333" rx="4.26666667"/><rect id="Rectangle-Copy" fill="#efefef" x="71.4666667" y="230.4" width="124.8" height="8.53333333" rx="4.26666667"/><g id="QRCodeWikipedia" transform="translate(67.200000, 40.533333)" fill="#303030" fill-rule="nonzero"><path d="M0 113.739407V91.0084477H22.7309641 45.4619283V113.739407 136.470367H22.7309641.0V113.739407zM38.9915331 113.718261V97.4788384H22.7521097 6.51268628V113.718261 129.957683H22.7521097 38.9915331V113.718261zM12.9830814 113.739407V103.991522H22.7309641 32.478848V113.739407 123.487281H22.7309641 12.9830814V113.739407zM58.4872997 133.21402V129.957683H55.2309566 51.9746134V123.466146 116.974597H55.2309566 58.4872997V120.230945 123.487281H61.7436418 64.9999871V116.974597 110.461913H68.235188 71.4703778V107.226712 103.991522H64.9788404 58.4872997V100.735175 97.4788384H68.235188 77.9830619V94.2436375 91.0084477H74.7267254 71.4703778V84.4957526 77.9830685H58.4661541 45.4619283V81.239416 84.4957526H42.2267307 38.9915331V81.239416 77.9830685H35.73519 32.478848V81.239416 84.4957526H29.2436504 26.0084529V77.9830685 71.4703844H19.4957666 12.9830814V74.726732 77.9830685H16.2394245 19.4957666V81.239416 84.4957526H16.2394245 12.9830814V81.239416 77.9830685H6.4915407.0V74.726732 71.4703844H3.25634314 6.51268628V61.7224995 51.9746145H13.004227 19.4957666V55.2309621 58.4872986H16.2394245 12.9830814V61.7436462 65h6.5126852H26.0084529V61.7436462 58.4872986H29.2436504 32.478848V61.7436462 65H38.9703876 45.4619283V61.7436462 58.4872986H42.2267307 38.9915331V55.2309621 51.9746145H42.2267307 45.4619283V55.2309621 58.4872986H51.9746134 58.4872997V61.7436462 65H61.7436418 64.9999871V58.4872986 51.9746145H58.4872997 51.9746134V42.2267296 32.4788557H55.2309566 58.4872997V29.2436548 26.008454H55.2309566 51.9746134V22.7521174 19.4957699H58.4872997 64.9999871V13.0042325 6.51268408H68.235188 71.4703778V3.25634755.0H77.9830619 84.495746V3.25634755 6.51268408H81.2394094 77.9830619V9.74788494 12.9830858H74.7267254 71.4703778V19.4957699 26.008454H74.7267254 77.9830619V22.7521174 19.4957699H81.2394094 84.495746V25.9873073 32.4788557H71.4915245 58.4872997V38.9703931 45.4619305H61.7436418 64.9999871V42.2267296 38.9915398H68.235188 71.4703778V42.2267296 45.4619305H74.7267254 77.9830619V42.2267296 38.9915398H81.2394094 84.495746V48.7394247 58.4872986H81.2394094 77.9830619V55.2309621 51.9746145H74.7267254 71.4703778V58.4872986 65H77.9830619 84.495746V68.2351836 71.4703844H87.7520935 91.0084411V61.7224995 51.9746145H97.4999785 103.991516V55.2309621 58.4872986H107.226717 110.461918V55.2309621 51.9746145H113.718254 116.974602V55.2309621 58.4872986H120.230938 123.487275V64.978847 71.4703844H126.722476 129.957676V64.978847 58.4872986H133.214013 136.470361V71.4915311 84.4957526H133.214013 129.957676V87.7521001 91.0084477H133.214013 136.470361V94.2436375 97.4788384H133.214013 129.957676V103.970376 110.461913H126.722476 123.487275V113.718261 116.974597H129.978823 136.470361V120.230945 123.487281H126.722476 116.974602V126.722482 129.957683H113.718254 110.461918V133.21402 136.470367H90.9661477 71.4703778V129.97883 123.487281H68.235188 64.9999871V129.97883 136.470367H61.7436418 58.4872997V133.21402zM84.495746 126.722482V123.487281H81.2394094 77.9830619V126.722482 129.957683H81.2394094 84.495746V126.722482zm25.966172.0V123.487281H113.718254 116.974602V116.974597 110.461913H120.230938 123.487275V103.970376 97.4788384H126.722476 129.957676V94.2436375 91.0084477H123.466139 116.974602V87.7521001 84.4957526H123.466139 129.957676V81.239416 77.9830685H126.722476 123.487275V74.726732 71.4703844H120.230938 116.974602V64.978847 58.4872986H113.718254 110.461918V64.978847 71.4703844H107.226717 103.991516V64.978847 58.4872986H100.735179 97.4788318V64.978847 71.4703844H94.2436309 91.0084411V77.9830685 84.4957526H87.7520935 84.495746V94.2436375 103.991522H81.2394094 77.9830619V110.48306 116.974597H81.2394094 84.495746V110.48306 103.991522H90.9872944 97.4788318V110.48306 116.974597H94.2436309 91.0084411V120.230945 123.487281H94.2436309 97.4788318V126.722482 129.957683H103.970369 110.461918V126.722482zM103.991516 113.739407V103.991522H100.735179 97.4788318V100.735175 97.4788384H94.2436309 91.0084411V94.2436375 91.0084477H94.2436309 97.4788318V94.2436375 97.4788384H100.735179 103.991516V87.7309534 77.9830685H107.226717 110.461918V74.726732 71.4703844H113.718254 116.974602V77.9830685 84.4957526H113.718254 110.461918V90.987301 97.4788384H113.718254 116.974602V103.970384v6.491529H113.718254 110.461918V116.974597 123.487281H107.226717 103.991516V113.739407zM110.461918 100.735175V97.4788384H107.226717 103.991516V100.735175 103.991522H107.226717 110.461918V100.735175zM45.4619283 74.726732V71.4703844H51.9746134 58.4872997V68.2351836 64.9999937H51.9746134 45.4619283V68.2351836 71.4703844H42.2267307 38.9915331V74.726732 77.9830685H42.2267307 45.4619283V74.726732zm39.0338177.0V71.4703844H81.2394094 77.9830619V74.726732 77.9830685H81.2394094 84.495746V74.726732zM32.478848 68.2351836V64.9999937H29.2436504 26.0084529V68.2351836 71.4703844H29.2436504 32.478848V68.2351836zm38.991529799999995.0V64.9999937H68.235188 64.9999871V68.2351836 71.4703844H68.235188 71.4703778V68.2351836zm0-19.5169056V45.4619305H68.235188 64.9999871V48.718278 51.9746145H68.235188 71.4703778V48.718278zM129.957676 133.21402V129.957683H133.214013 136.470361V133.21402 136.470367H133.214013 129.957676V133.21402zM51.9746134 87.7521001V84.4957526H58.4872997 64.9999871V87.7521001 91.0084477H58.4872997 51.9746134V87.7521001zM0 22.7309707V0H22.7309641 45.4619283V22.7309707 45.4619305H22.7309641.0V22.7309707zM38.9915331 22.7521174V6.51268408H22.7521097 6.51268628V22.7521174 38.9915398H22.7521097 38.9915331V22.7521174zM12.9830814 22.7309707V12.9830858H22.7309641 32.478848v9.7478849V32.4788557H22.7309641 12.9830814V22.7309707zm78.0253597.0V0H113.739401 136.470361V22.7309707 45.4619305H113.739401 91.0084411V22.7309707zM129.957676 22.7521174V6.51268408H113.718254 97.4788318V22.7521174 38.9915398H113.718254 129.957676V22.7521174zM103.991516 22.7309707V12.9830858H113.739401 123.487275v9.7478849V32.4788557H113.739401 103.991516V22.7309707z" id="path2470"/></g></g></g></g></g></g></g></g></g></svg>