<svg xmlns="http://www.w3.org/2000/svg" viewBox="0 0 1440 320"><path fill="#e7008a" fill-opacity="1" d="M0,224L12.6,234.7C25.3,245,51,267,76,245.3C101.1,224,126,160,152,165.3C176.8,171,202,245,227,272C252.6,299,278,277,303,277.3C328.4,277,354,299,379,282.7C404.2,267,429,213,455,176C480,139,505,117,531,133.3C555.8,149,581,203,606,202.7C631.6,203,657,149,682,106.7C707.4,64,733,32,758,42.7C783.2,53,808,107,834,128C858.9,149,884,139,909,160C934.7,181,960,235,985,218.7C1010.5,203,1036,117,1061,90.7C1086.3,64,1112,96,1137,133.3C1162.1,171,1187,213,1213,197.3C1237.9,181,1263,107,1288,106.7C1313.7,107,1339,181,1364,181.3C1389.5,181,1415,107,1427,69.3L1440,32L1440,0L1427.4,0C1414.7,0,1389,0,1364,0C1338.9,0,1314,0,1288,0C1263.2,0,1238,0,1213,0C1187.4,0,1162,0,1137,0C1111.6,0,1086,0,1061,0C1035.8,0,1011,0,985,0C960,0,935,0,909,0C884.2,0,859,0,834,0C808.4,0,783,0,758,0C732.6,0,707,0,682,0C656.8,0,632,0,606,0C581.1,0,556,0,531,0C505.3,0,480,0,455,0C429.5,0,404,0,379,0C353.7,0,328,0,303,0C277.9,0,253,0,227,0C202.1,0,177,0,152,0C126.3,0,101,0,76,0C50.5,0,25,0,13,0L0,0Z"></path></svg>